<svg width="48" height="47" viewBox="0 0 48 47" fill="none" xmlns="http://www.w3.org/2000/svg" preserveAspectRatio="false">
<path d="M23.6051 1.32333C23.8053 1.06565 24.1947 1.06564 24.3949 1.32333L24.7897 1.0166L24.3949 1.32333L26.6772 4.2614C27.1429 4.86091 27.9831 5.01797 28.634 4.62718L31.8236 2.712C32.1033 2.54402 32.4664 2.68468 32.56 2.99728L33.6268 6.56143C33.8445 7.28869 34.5713 7.73866 35.3193 7.60936L38.9854 6.97572C39.3069 6.92015 39.5946 7.18246 39.569 7.50775L39.2763 11.2166C39.2166 11.9734 39.7317 12.6555 40.4759 12.8052L44.1233 13.5387C44.4432 13.603 44.6168 13.9515 44.4753 14.2456L42.8626 17.5983C42.5335 18.2824 42.7675 19.1045 43.4074 19.5129L46.5435 21.5145C46.8186 21.69 46.8545 22.0777 46.6164 22.3008L43.9014 24.8445C43.3474 25.3636 43.2686 26.2147 43.7177 26.8267L45.9191 29.826C46.1121 30.089 46.0056 30.4635 45.7029 30.5855L42.2524 31.9767C41.5484 32.2606 41.1674 33.0257 41.3651 33.7587L42.3343 37.3506C42.4193 37.6657 42.1847 37.9764 41.8584 37.9808L38.1384 38.0316C37.3793 38.042 36.7476 38.6178 36.6673 39.3727L36.2734 43.0722C36.2389 43.3967 35.9079 43.6017 35.602 43.4879L32.1148 42.1915C31.4032 41.9269 30.6062 42.2357 30.2586 42.9106L28.555 46.218C28.4055 46.5081 28.0228 46.5796 27.7787 46.3631L24.9953 43.8944C24.4274 43.3907 23.5726 43.3907 23.0047 43.8944L20.2213 46.3631C19.9772 46.5796 19.5945 46.5081 19.445 46.218L17.7414 42.9106C17.3938 42.2357 16.5967 41.9269 15.8852 42.1915L12.398 43.4879C12.0921 43.6017 11.7611 43.3967 11.7266 43.0722L11.3327 39.3727C11.2524 38.6178 10.6207 38.042 9.86165 38.0316L6.14158 37.9808C5.81531 37.9764 5.58067 37.6657 5.66567 37.3506L6.63487 33.7587C6.83263 33.0257 6.45164 32.2606 5.74757 31.9767L5.5606 32.4405L5.74757 31.9767L2.29706 30.5855C1.99443 30.4635 1.88787 30.089 2.08094 29.826L4.28225 26.8267C4.73143 26.2147 4.65256 25.3636 4.09858 24.8445L1.38363 22.3008C1.14552 22.0777 1.18144 21.69 1.4565 21.5145L4.59263 19.5129C5.23255 19.1045 5.46646 18.2824 5.13739 17.5983L3.52467 14.2456C3.38323 13.9515 3.55678 13.603 3.87668 13.5387L7.52407 12.8052C8.26832 12.6555 8.78342 11.9734 8.7237 11.2166L8.43102 7.50775C8.40535 7.18246 8.6931 6.92015 9.01463 6.97572L12.6807 7.60936C13.4287 7.73866 14.1555 7.28869 14.3732 6.56143L15.44 2.99727C15.5336 2.68468 15.8967 2.54402 16.1764 2.712L19.366 4.62718C20.0169 5.01797 20.8571 4.86091 21.3228 4.2614L23.6051 1.32333L23.2103 1.01659L23.6051 1.32333Z" stroke="white"/>
</svg>
