<svg width="215" height="215" viewBox="0 0 215 215" fill="none" xmlns="http://www.w3.org/2000/svg">
<path d="M99.9474 2.30376C104.511 -0.57562 110.324 -0.575618 114.888 2.30377L121.157 6.25901C124.177 8.1644 127.811 8.84372 131.316 8.15798L138.59 6.73452C143.886 5.69825 149.306 7.79797 152.522 12.1316L156.939 18.0844C159.067 20.9522 162.21 22.8984 165.725 23.5249L173.023 24.8255C178.336 25.7723 182.631 29.6881 184.064 34.8907L186.032 42.0372C186.981 45.4799 189.208 48.4302 192.26 50.2844L198.595 54.1333C203.207 56.9353 205.798 62.1384 205.255 67.5073L204.509 74.8823C204.149 78.4351 205.161 81.9909 207.337 84.8224L211.854 90.6998C215.142 94.9786 215.678 100.766 213.232 105.576L209.872 112.184C208.254 115.367 207.913 119.048 208.919 122.474L211.007 129.587C212.528 134.764 210.937 140.355 206.919 143.957L201.399 148.904C198.74 151.287 197.092 154.597 196.792 158.155L196.171 165.542C195.718 170.919 192.215 175.557 187.167 177.464L180.233 180.084C176.892 181.346 174.16 183.836 172.595 187.046L169.347 193.709C166.983 198.56 162.041 201.62 156.645 201.574L149.232 201.512C145.662 201.482 142.214 202.817 139.596 205.245L134.16 210.285C130.203 213.954 124.489 215.022 119.474 213.03L112.585 210.294C109.266 208.976 105.569 208.976 102.25 210.294L95.3611 213.03C90.3458 215.022 84.6322 213.954 80.6751 210.285L75.2394 205.245C72.6209 202.817 69.1735 201.482 65.6027 201.512L58.1904 201.574C52.7943 201.62 47.8524 198.56 45.4878 193.709L42.2398 187.046C40.6752 183.836 37.943 181.346 34.6025 180.084L27.6681 177.464C22.6199 175.557 19.1171 170.919 18.6645 165.542L18.0429 158.155C17.7434 154.597 16.0955 151.287 13.4363 148.904L7.91645 143.957C3.89801 140.355 2.30734 134.764 3.82783 129.587L5.91644 122.474C6.9226 119.048 6.58149 115.367 4.96288 112.184L1.60296 105.576C-0.843035 100.766 -0.30672 94.9786 2.98149 90.6998L7.4983 84.8224C9.67423 81.9909 10.686 78.4351 10.3265 74.8823L9.58033 67.5073C9.03712 62.1384 11.628 56.9353 16.2398 54.1333L22.5748 50.2844C25.6266 48.4302 27.8546 45.4799 28.8028 42.0372L30.7711 34.8907C32.2041 29.6881 36.4996 25.7723 41.8122 24.8255L49.1098 23.5249C52.6253 22.8984 55.7686 20.9521 57.8965 18.0844L62.3135 12.1316C65.5291 7.79798 70.9491 5.69825 76.2449 6.73452L83.5196 8.15799C87.0241 8.84372 90.6581 8.1644 93.6782 6.25901L99.9474 2.30376Z" fill="white"/>
</svg>
