<svg aria-hidden="true" xmlns="http://www.w3.org/2000/svg" xmlns:xlink="http://www.w3.org/1999/xlink"><symbol viewBox="0 0 22 21" id="arrow-right" xmlns="http://www.w3.org/2000/svg">
<path d="M21.092 9.98744C21.2821 10.1793 21.3887 10.4385 21.3887 10.7086C21.3887 10.9786 21.2821 11.2378 21.092 11.4297L11.9831 20.5386C11.7888 20.7243 11.5308 20.8284 11.262 20.8296C11.1277 20.829 10.9947 20.8032 10.8698 20.7536C10.6856 20.6762 10.5284 20.546 10.4181 20.3794C10.3078 20.2128 10.2493 20.0173 10.2499 19.8175V11.7207H1.14101C0.87258 11.7207 0.615149 11.614 0.425343 11.4242C0.235538 11.2344 0.128906 10.977 0.128906 10.7086C0.128906 10.4401 0.235538 10.1827 0.425343 9.99289C0.615149 9.80309 0.87258 9.69646 1.14101 9.69646H10.2499V1.59966C10.2493 1.39985 10.3078 1.20432 10.4181 1.03772C10.5284 0.871114 10.6856 0.740894 10.8698 0.663467C11.0568 0.590549 11.2605 0.572051 11.4575 0.610112C11.6546 0.648173 11.8368 0.741237 11.9831 0.878538L21.092 9.98744Z"/>
</symbol><symbol viewBox="0 0 48 47" id="circle-border" xmlns="http://www.w3.org/2000/svg">
<path d="M23.6051 1.32333C23.8053 1.06565 24.1947 1.06564 24.3949 1.32333L24.7897 1.0166L24.3949 1.32333L26.6772 4.2614C27.1429 4.86091 27.9831 5.01797 28.634 4.62718L31.8236 2.712C32.1033 2.54402 32.4664 2.68468 32.56 2.99728L33.6268 6.56143C33.8445 7.28869 34.5713 7.73866 35.3193 7.60936L38.9854 6.97572C39.3069 6.92015 39.5946 7.18246 39.569 7.50775L39.2763 11.2166C39.2166 11.9734 39.7317 12.6555 40.4759 12.8052L44.1233 13.5387C44.4432 13.603 44.6168 13.9515 44.4753 14.2456L42.8626 17.5983C42.5335 18.2824 42.7675 19.1045 43.4074 19.5129L46.5435 21.5145C46.8186 21.69 46.8545 22.0777 46.6164 22.3008L43.9014 24.8445C43.3474 25.3636 43.2686 26.2147 43.7177 26.8267L45.9191 29.826C46.1121 30.089 46.0056 30.4635 45.7029 30.5855L42.2524 31.9767C41.5484 32.2606 41.1674 33.0257 41.3651 33.7587L42.3343 37.3506C42.4193 37.6657 42.1847 37.9764 41.8584 37.9808L38.1384 38.0316C37.3793 38.042 36.7476 38.6178 36.6673 39.3727L36.2734 43.0722C36.2389 43.3967 35.9079 43.6017 35.602 43.4879L32.1148 42.1915C31.4032 41.9269 30.6062 42.2357 30.2586 42.9106L28.555 46.218C28.4055 46.5081 28.0228 46.5796 27.7787 46.3631L24.9953 43.8944C24.4274 43.3907 23.5726 43.3907 23.0047 43.8944L20.2213 46.3631C19.9772 46.5796 19.5945 46.5081 19.445 46.218L17.7414 42.9106C17.3938 42.2357 16.5967 41.9269 15.8852 42.1915L12.398 43.4879C12.0921 43.6017 11.7611 43.3967 11.7266 43.0722L11.3327 39.3727C11.2524 38.6178 10.6207 38.042 9.86165 38.0316L6.14158 37.9808C5.81531 37.9764 5.58067 37.6657 5.66567 37.3506L6.63487 33.7587C6.83263 33.0257 6.45164 32.2606 5.74757 31.9767L5.5606 32.4405L5.74757 31.9767L2.29706 30.5855C1.99443 30.4635 1.88787 30.089 2.08094 29.826L4.28225 26.8267C4.73143 26.2147 4.65256 25.3636 4.09858 24.8445L1.38363 22.3008C1.14552 22.0777 1.18144 21.69 1.4565 21.5145L4.59263 19.5129C5.23255 19.1045 5.46646 18.2824 5.13739 17.5983L3.52467 14.2456C3.38323 13.9515 3.55678 13.603 3.87668 13.5387L7.52407 12.8052C8.26832 12.6555 8.78342 11.9734 8.7237 11.2166L8.43102 7.50775C8.40535 7.18246 8.6931 6.92015 9.01463 6.97572L12.6807 7.60936C13.4287 7.73866 14.1555 7.28869 14.3732 6.56143L15.44 2.99727C15.5336 2.68468 15.8967 2.54402 16.1764 2.712L19.366 4.62718C20.0169 5.01797 20.8571 4.86091 21.3228 4.2614L23.6051 1.32333L23.2103 1.01659L23.6051 1.32333Z"/>
</symbol><symbol viewBox="0 0 20 19" id="facebook" xmlns="http://www.w3.org/2000/svg">
<path fill-rule="evenodd" clip-rule="evenodd" d="M19.3505 9.54539C19.3505 4.74438 15.1944 0.851562 10.0688 0.851562C4.94308 0.851562 0.787014 4.74438 0.787014 9.54539C0.787014 13.8845 4.18065 17.4812 8.61849 18.134V12.0592H6.26117V9.54539H8.61849V7.63003C8.61849 5.45153 10.0045 4.2472 12.1244 4.2472C13.14 4.2472 14.2025 4.4172 14.2025 4.4172V6.55689H13.0315C11.8791 6.55689 11.5186 7.22678 11.5186 7.9153V9.54539H14.0926L13.6816 12.0592H11.519V18.1348C15.9569 17.4824 19.3505 13.8857 19.3505 9.54539Z"/>
</symbol><symbol viewBox="0 0 19 19" id="insta" xmlns="http://www.w3.org/2000/svg">
<path d="M13.5472 2.29007C14.5389 2.29292 15.4892 2.6733 16.1905 3.34814C16.8918 4.02297 17.2871 4.93743 17.2901 5.89179V13.0945C17.2871 14.0488 16.8918 14.9633 16.1905 15.6381C15.4892 16.313 14.5389 16.6933 13.5472 16.6962H6.06212C5.07034 16.6933 4.12004 16.313 3.41874 15.6381C2.71745 14.9633 2.32216 14.0488 2.31919 13.0945V5.89179C2.32216 4.93743 2.71745 4.02297 3.41874 3.34814C4.12004 2.6733 5.07034 2.29292 6.06212 2.29007H13.5472ZM13.5472 0.849609H6.06212C3.18014 0.849609 0.822266 3.11853 0.822266 5.89179V13.0945C0.822266 15.8677 3.18014 18.1366 6.06212 18.1366H13.5472C16.4291 18.1366 18.787 15.8677 18.787 13.0945V5.89179C18.787 3.11853 16.4291 0.849609 13.5472 0.849609Z"/>
<path d="M14.67 5.89208C14.4479 5.89208 14.2308 5.82871 14.0462 5.70999C13.8616 5.59127 13.7176 5.42253 13.6327 5.22511C13.5477 5.02768 13.5254 4.81044 13.5688 4.60086C13.6121 4.39127 13.719 4.19876 13.876 4.04765C14.0331 3.89655 14.2331 3.79365 14.4509 3.75196C14.6687 3.71027 14.8945 3.73167 15.0997 3.81345C15.3048 3.89522 15.4802 4.0337 15.6036 4.21138C15.7269 4.38906 15.7928 4.59795 15.7928 4.81164C15.7931 4.95361 15.7643 5.09425 15.708 5.22547C15.6516 5.35669 15.569 5.47592 15.4646 5.57631C15.3603 5.6767 15.2364 5.75627 15.1 5.81046C14.9637 5.86465 14.8175 5.89239 14.67 5.89208ZM9.80467 6.61212C10.3969 6.61212 10.9758 6.7811 11.4682 7.0977C11.9606 7.4143 12.3444 7.8643 12.571 8.39079C12.7976 8.91728 12.8569 9.49661 12.7414 10.0555C12.6259 10.6144 12.3407 11.1278 11.9219 11.5308C11.5032 11.9338 10.9696 12.2082 10.3888 12.3194C9.80799 12.4305 9.20595 12.3735 8.65882 12.1554C8.11169 11.9373 7.64405 11.568 7.31503 11.0942C6.98602 10.6204 6.81041 10.0633 6.81041 9.49342C6.81126 8.7295 7.127 7.9971 7.68835 7.45693C8.24969 6.91676 9.0108 6.61293 9.80467 6.61212ZM9.80467 5.17166C8.9164 5.17166 8.04807 5.42513 7.3095 5.90001C6.57093 6.37489 5.99528 7.04985 5.65535 7.83955C5.31543 8.62925 5.22649 9.49821 5.39978 10.3366C5.57307 11.1749 6.00082 11.945 6.62892 12.5494C7.25702 13.1538 8.05728 13.5654 8.92848 13.7321C9.79969 13.8989 10.7027 13.8133 11.5234 13.4862C12.344 13.1591 13.0455 12.6052 13.539 11.8945C14.0325 11.1837 14.2959 10.3482 14.2959 9.49342C14.2959 8.34722 13.8227 7.24796 12.9804 6.43747C12.1382 5.62699 10.9958 5.17166 9.80467 5.17166Z"/>
</symbol><symbol viewBox="0 0 19 19" id="linkedin" xmlns="http://www.w3.org/2000/svg">
<path d="M16.8306 0.71582H2.17996C1.37942 0.71582 0.679985 1.29183 0.679985 2.08296V16.7661C0.679985 17.5615 1.37942 18.2704 2.17996 18.2704H16.8263C17.6311 18.2704 18.2345 17.5568 18.2345 16.7661V2.08296C18.2392 1.29183 17.6311 0.71582 16.8306 0.71582ZM6.1215 15.3484H3.60666V7.52918H6.1215V15.3484ZM4.95107 6.34033H4.93305C4.1282 6.34033 3.60705 5.7412 3.60705 4.99122C3.60705 4.22751 4.14192 3.64249 4.96479 3.64249C5.78766 3.64249 6.29117 4.2232 6.3092 4.99122C6.30881 5.7412 5.78765 6.34033 4.95107 6.34033ZM15.3126 15.3484H12.7977V11.073C12.7977 10.0487 12.4317 9.3489 11.5219 9.3489C10.8268 9.3489 10.4153 9.81911 10.2323 10.2772C10.1638 10.4417 10.1453 10.6659 10.1453 10.8947V15.3484H7.63049V7.52918H10.1453V8.61733C10.5113 8.09618 11.083 7.34619 12.4133 7.34619C14.0642 7.34619 15.313 8.43434 15.313 10.7803L15.3126 15.3484Z"/>
</symbol><symbol viewBox="0 0 140 140" id="play" xmlns="http://www.w3.org/2000/svg">
<path d="M70 8.75C57.8859 8.75 46.0438 12.3423 35.9713 19.0725C25.8988 25.8027 18.0482 35.3687 13.4124 46.5606C8.77651 57.7526 7.56355 70.0679 9.9269 81.9493C12.2902 93.8306 18.1237 104.744 26.6897 113.31C35.2557 121.876 46.1694 127.71 58.0507 130.073C69.9321 132.436 82.2474 131.223 93.4394 126.588C104.631 121.952 114.197 114.101 120.928 104.029C127.658 93.9562 131.25 82.1141 131.25 70C131.25 53.7555 124.797 38.1763 113.31 26.6897C101.824 15.2031 86.2445 8.75 70 8.75ZM102.581 73.9156L50.0806 100.166C49.4134 100.499 48.6721 100.656 47.9271 100.623C47.182 100.589 46.4579 100.365 45.8236 99.9728C45.1893 99.5805 44.6658 99.0325 44.3029 98.381C43.94 97.7294 43.7497 96.9958 43.75 96.25V43.75C43.7504 43.0045 43.9413 42.2715 44.3045 41.6206C44.6677 40.9696 45.1913 40.4222 45.8255 40.0304C46.4597 39.6386 47.1834 39.4153 47.9282 39.3818C48.6729 39.3482 49.4138 39.5055 50.0806 39.8387L102.581 66.0887C103.306 66.4525 103.917 67.011 104.343 67.7017C104.769 68.3924 104.995 69.1882 104.995 70C104.995 70.8118 104.769 71.6076 104.343 72.2983C103.917 72.989 103.306 73.5475 102.581 73.9112V73.9156Z"/>
</symbol><symbol viewBox="0 0 18 15" id="twitter" xmlns="http://www.w3.org/2000/svg">
<path d="M17.68 2.20768C17.0299 2.48994 16.3421 2.67589 15.6384 2.75967C16.378 2.32688 16.9342 1.63931 17.2027 0.825924C16.5034 1.23453 15.7396 1.52123 14.9441 1.67374C14.6091 1.3229 14.2062 1.0438 13.7599 0.853396C13.3136 0.662994 12.8332 0.565272 12.3479 0.566168C10.3832 0.566168 8.79321 2.13192 8.79321 4.06206C8.79182 4.33053 8.82261 4.59821 8.88491 4.85936C7.47606 4.79336 6.0965 4.43422 4.8345 3.80492C3.57251 3.17561 2.45585 2.29 1.55599 1.20474C1.2403 1.73656 1.07334 2.34335 1.07257 2.9617C1.07257 4.1739 1.70546 5.24539 2.66111 5.87314C2.09491 5.85971 1.54032 5.70996 1.04441 5.4366V5.47989C1.04441 7.17552 2.27192 8.58615 3.89655 8.90723C3.59104 8.98862 3.27622 9.02985 2.96004 9.0299C2.73569 9.03029 2.51184 9.00853 2.29177 8.96496C2.74342 10.3539 4.05793 11.3641 5.61506 11.393C4.34978 12.3674 2.79636 12.894 1.19893 12.8902C0.915385 12.8897 0.632101 12.8729 0.35051 12.8397C1.97557 13.8766 3.86458 14.4251 5.79269 14.4198C12.3403 14.4198 15.9174 9.09123 15.9174 4.46973C15.9174 4.3182 15.9135 4.16668 15.9062 4.01876C16.6005 3.52525 17.2012 2.91195 17.68 2.20768Z"/>
</symbol></svg>