<svg width="113" height="95" viewBox="0 0 113 95" fill="none" xmlns="http://www.w3.org/2000/svg">
<path d="M11.2039 67.677C11.2266 68.2754 11.1138 68.8711 10.8741 69.4192C10.6344 69.9672 10.2741 70.4533 9.82035 70.8406C8.68369 71.7746 7.23975 72.2447 5.77491 72.1574H3.50404V78.7116H1.08279V66.6023C1.11038 65.9025 1.05994 65.2019 0.932407 64.5135C0.900606 64.2437 0.797257 63.9875 0.633201 63.7718C0.469144 63.556 0.250429 63.3887 0 63.2874L0 63.0755H6.01553C6.7104 63.0338 7.40651 63.133 8.06264 63.367C8.71877 63.601 9.32158 63.9651 9.83539 64.4378C10.2691 64.8535 10.61 65.3574 10.8356 65.9158C11.0612 66.4743 11.1662 67.0746 11.1438 67.677M23.5207 78.7116H14.4974V66.6023C14.525 65.9025 14.4746 65.2019 14.347 64.5135C14.3001 64.2539 14.1866 64.0112 14.0178 63.8094C13.849 63.6077 13.6307 63.4538 13.3845 63.3631V63.1512H16.9187V76.9103H23.4606L23.5207 78.7116ZM39.4167 78.7116H36.9353L34.8299 74.0041H28.288L26.2878 78.7116H24.1674L30.7845 63.1058H32.529L39.4167 78.7116ZM34.0328 72.218L32.153 67.9495C31.8565 67.3488 31.6197 66.7201 31.4462 66.0725C31.2676 66.7105 31.0517 67.3372 30.7995 67.9495L29.07 72.218H34.0328ZM51.6884 64.9524H46.6955V78.7116H44.2292V64.9221H39.2212V63.0755H51.6884V64.9524ZM56.5008 78.7116H54.1397V66.6023C54.1673 65.9025 54.1169 65.2019 53.9893 64.5135C53.9377 64.2594 53.822 64.023 53.6535 63.8268C53.485 63.6307 53.2692 63.4814 53.0269 63.3933V63.1512H56.561L56.5008 78.7116ZM75.4497 78.7116H73.4496L63.5089 66.7385V78.7116H61.4035V66.6023C61.4311 65.9025 61.3806 65.2019 61.2531 64.5135C61.2089 64.2572 61.1 64.0168 60.9366 63.8153C60.7733 63.6138 60.5612 63.4581 60.3207 63.3631V63.1512H63.3285L73.2992 75.0485V63.0755H75.3745L75.4497 78.7116ZM93.1203 72.6569C93.1689 73.5377 93.0378 74.419 92.7352 75.2468C92.4326 76.0747 91.9649 76.8314 91.3608 77.4704C90.7257 78.0512 89.9789 78.4946 89.1666 78.7731C88.3544 79.0517 87.4939 79.1596 86.6386 79.09C85.769 79.1975 84.8865 79.1059 84.057 78.8223C83.2274 78.5386 82.4722 78.0701 81.8477 77.4516C81.2231 76.8332 80.7453 76.0808 80.45 75.2506C80.1546 74.4204 80.0493 73.5338 80.1419 72.6569V66.6023C80.167 65.9019 80.1115 65.201 79.9764 64.5135C79.9309 64.2556 79.8196 64.014 79.6536 63.8124C79.4875 63.6108 79.2723 63.4559 79.029 63.3631V63.1512H82.5481V72.6569C82.4984 73.266 82.5713 73.8789 82.7625 74.4589C82.9537 75.0389 83.2593 75.5741 83.6609 76.0324C84.5048 76.7417 85.5693 77.1303 86.6687 77.1303C87.7681 77.1303 88.8326 76.7417 89.6765 76.0324C90.0754 75.5729 90.3782 75.0371 90.5669 74.4572C90.7555 73.8772 90.826 73.265 90.7743 72.6569V63.1209H93.1203V72.6569ZM112.791 78.7116H110.385V66.9807L105.633 73.989H104.79L100.038 66.9807V78.7116H97.7523V66.6023C97.7799 65.9025 97.7294 65.2019 97.6019 64.5135C97.5578 64.2572 97.4488 64.0168 97.2855 63.8153C97.1221 63.6138 96.91 63.4581 96.6695 63.3631V63.1512H100.068L105.422 71.0676L110.731 63.1512H112.791V78.7116ZM89.7517 89.7764H109.934L112.791 89.0953L109.874 88.4747H89.7517V89.7764ZM31.1905 83.8126H38.3791V84.9327H32.3635V88.5201H37.7474V89.6402H32.4086V93.3487H38.5896V94.4839H31.1905V83.8126ZM43.8231 83.8126H45.2518L48.1242 87.9752L51.132 83.8126H52.5607L48.9513 88.9288L52.8614 94.4839H51.3576L48.1242 89.9429L44.936 94.4839H43.6126L47.5076 88.9893L43.8231 83.8126ZM65.7046 84.7662C66.0721 85.0968 66.3604 85.5068 66.548 85.9656C66.7355 86.4244 66.8174 86.92 66.7874 87.4151C66.8159 87.9213 66.7337 88.4277 66.5466 88.8984C66.3595 89.3692 66.0721 89.7929 65.7046 90.1397C64.8547 90.8243 63.7837 91.1692 62.6968 91.1085H59.8846V94.499H58.6514V83.8126H62.6367C63.7409 83.7411 64.8327 84.0804 65.7046 84.7662ZM64.8323 89.3072C65.0991 89.0741 65.3085 88.7819 65.4442 88.4536C65.5799 88.1254 65.6381 87.7699 65.6144 87.4151C65.6381 87.0648 65.5797 86.7138 65.4438 86.3904C65.308 86.067 65.0985 85.7803 64.8323 85.5533C64.1844 85.0917 63.3989 84.8673 62.6066 84.9176H59.8846V89.9581H62.6066C63.4007 90.004 64.1863 89.7742 64.8323 89.3072ZM79.8712 84.4332C80.7019 84.9011 81.3966 85.5794 81.8864 86.401C82.4136 87.2117 82.7005 88.1567 82.7135 89.1256C82.7243 90.0946 82.4693 91.0478 81.9766 91.8804C81.4743 92.7078 80.7635 93.3867 79.9163 93.8482C79.0689 94.3334 78.109 94.5841 77.1341 94.5747C76.1497 94.5837 75.1802 94.3333 74.3218 93.8482C73.4911 93.3803 72.7964 92.702 72.3066 91.8804C71.8202 91.0452 71.5657 90.0937 71.5697 89.1256C71.5656 88.1717 71.8204 87.2349 72.3066 86.4161C72.7964 85.5946 73.4911 84.9162 74.3218 84.4483C75.1802 83.9633 76.1497 83.7128 77.1341 83.7218C78.109 83.7124 79.0689 83.9631 79.9163 84.4483L79.8712 84.4332ZM77.089 84.8268C76.3344 84.8247 75.5924 85.0205 74.9358 85.3947C74.2792 85.7689 73.7307 86.3087 73.3443 86.961C72.9554 87.6093 72.7524 88.3532 72.7578 89.1104C72.7523 89.8772 72.9551 90.6309 73.3443 91.2901C73.7311 91.9241 74.2754 92.4458 74.9234 92.8037C75.581 93.1806 76.3247 93.3788 77.0815 93.3788C77.8382 93.3788 78.5819 93.1806 79.2395 92.8037C79.858 92.4328 80.3749 91.9126 80.7434 91.2901C81.1326 90.6309 81.3354 89.8772 81.3299 89.1104C81.3353 88.3532 81.1323 87.6093 80.7434 86.961C80.3724 86.3404 79.8561 85.8208 79.2395 85.4474C78.6014 85.0661 77.876 84.8575 77.1341 84.8419L77.089 84.8268ZM2.91753 88.4747L0 89.0953L2.91753 89.7764H23.0996V88.4747H2.91753ZM79.1192 32.9537C80.7524 29.466 81.0104 25.4847 79.8411 21.8131C79.6486 23.7164 79.1403 25.5737 78.3372 27.3077C78.8858 29.0194 79.1648 30.807 79.1643 32.6055L79.1192 32.9537ZM72.6525 33.9375C72.6525 34.2251 72.6525 34.5127 72.6525 34.8155C72.6537 36.7067 72.3385 38.5847 71.7201 40.3706C73.8127 39.3831 75.6578 37.9346 77.119 36.1323C77.6099 33.8734 77.6099 31.5344 77.119 29.2755C75.9206 31.1018 74.3898 32.6836 72.6074 33.9375H72.6525ZM73.1338 21.8283C72.5936 23.6124 71.7654 25.2948 70.6824 26.8082C71.5651 28.4614 72.165 30.2524 72.457 32.106C72.9863 31.717 73.4888 31.2922 73.9609 30.8345C74.9989 29.7707 75.8801 28.5626 76.5776 27.2472C75.8242 25.2067 74.6506 23.3497 73.1338 21.798V21.8283ZM73.4947 13.5334C73.7236 14.6643 73.8394 15.8153 73.8406 16.9694C73.8358 17.9851 73.7402 18.9983 73.5548 19.9967C73.7804 20.1935 73.991 20.4054 74.2015 20.6173C75.5221 21.9434 76.6193 23.4771 77.4499 25.1583C78.057 23.475 78.3625 21.6966 78.3522 19.9059C78.3549 19.4003 78.3298 18.895 78.277 18.3923C77.0626 16.426 75.4291 14.756 73.4947 13.5031V13.5334ZM49.0115 22.1915C49.1318 21.7526 49.2521 21.3288 49.4025 20.9049C48.8854 21.1298 48.3831 21.3877 47.8986 21.6769C47.8986 22.2218 48.049 22.7667 48.1543 23.2965C48.4701 22.9181 48.7258 22.5548 49.0115 22.1915ZM47.5076 28.9273C47.935 29.2757 48.3819 29.5992 48.8461 29.8961C48.7558 29.4571 48.6806 29.003 48.6355 28.564C48.3994 28.1667 48.1836 27.7575 47.9889 27.338C47.7888 27.8576 47.6181 28.3883 47.4775 28.9273H47.5076ZM44.0637 25.0675C44.6632 26.0328 45.3695 26.9265 46.1692 27.7315C46.4179 26.8797 46.7348 26.0495 47.1166 25.2491C46.8451 24.4191 46.6389 23.5688 46.5 22.7062C45.606 23.4029 44.7892 24.1945 44.0637 25.0675ZM71.0133 33.1202C70.8185 31.4027 70.3407 29.7299 69.5996 28.1705C68.7084 29.196 67.6987 30.1107 66.5919 30.8951C66.6676 32.2684 66.5767 33.6459 66.3212 34.9971C67.9791 34.6421 69.5655 34.0075 71.0133 33.1202ZM63.3886 41.7026C64.0226 41.7761 64.6604 41.8114 65.2985 41.8086C66.801 41.811 68.2957 41.5917 69.735 41.1577C70.6264 39.1898 71.0929 37.0539 71.1035 34.8911C69.4617 35.7843 67.6824 36.3932 65.8399 36.6924C65.3062 38.4884 64.4777 40.1819 63.3886 41.7026ZM60.035 36.6319C59.1437 37.6485 58.1338 38.5531 57.0272 39.3262C58.4463 40.2641 60.0122 40.9549 61.6591 41.3696C62.7273 40.0051 63.561 38.4702 64.1255 36.8286H63.1179C62.0865 36.8551 61.0548 36.7892 60.035 36.6319ZM62.5765 32.9385C62.1675 33.7264 61.7052 34.485 61.1929 35.209C61.8317 35.2875 62.4744 35.3279 63.1179 35.3301C63.6142 35.3301 64.1105 35.3301 64.6218 35.2544C64.8787 34.1427 65.0099 33.0052 65.0128 31.8638C64.2264 32.2784 63.4123 32.6375 62.5765 32.9385ZM72.1863 18.8615C72.2648 18.2237 72.305 17.5818 72.3066 16.9391C72.302 15.4263 72.0791 13.9222 71.6449 12.4738C69.69 11.5774 67.5671 11.1129 65.4188 11.1116C66.3083 12.7577 66.9135 14.544 67.2085 16.3942C68.9953 16.9251 70.6788 17.7596 72.1863 18.8615ZM67.1634 22.2369C68.1646 23.1384 69.058 24.1544 69.8252 25.2643C70.7677 23.8253 71.4547 22.2325 71.8555 20.5568C70.5054 19.4694 68.9792 18.6245 67.3438 18.0592C67.3438 18.4074 67.3438 18.7404 67.3438 19.0885C67.3631 20.1427 67.2876 21.1965 67.1182 22.2369H67.1634ZM62.366 17.257C62.7821 18.036 63.1391 18.8456 63.4337 19.6789C64.2235 20.0779 64.9781 20.5438 65.6895 21.0714C65.7675 20.4286 65.8077 19.7816 65.8099 19.1339C65.8404 18.6299 65.8404 18.1244 65.8099 17.6203C64.6788 17.3711 63.5238 17.2493 62.366 17.257ZM58.6514 12.6252C59.6748 13.5176 60.5841 14.5345 61.3584 15.6525H62.2457C63.3204 15.6543 64.3927 15.7556 65.4489 15.9553C65.1025 14.2798 64.4825 12.6737 63.6142 11.2024C61.8908 11.3853 60.2118 11.8667 58.6514 12.6252ZM63.4638 3.02861C59.9935 1.40528 56.0456 1.14613 52.3952 2.30205C54.2871 2.49119 56.1331 3.00305 57.8543 3.81571C59.5699 3.26588 61.3628 3.00006 63.163 3.02861H63.4638ZM64.4263 9.53735H65.2985C67.1825 9.53617 69.0533 9.8534 70.8328 10.4758C69.85 8.36649 68.4052 6.50865 66.6069 5.04178C65.479 4.76725 64.3234 4.62503 63.163 4.61795C62.0453 4.61571 60.9307 4.73754 59.8395 4.98123C60.7995 5.61859 61.6915 6.3541 62.5013 7.17604C63.2152 7.90053 63.8598 8.69113 64.4263 9.53735ZM52.3952 9.06811C54.1795 9.60553 55.862 10.4395 57.3731 11.5354C59.0094 10.642 60.7839 10.033 62.6216 9.73412C62.229 9.23022 61.8072 8.75006 61.3584 8.29614C60.2921 7.2217 59.0763 6.309 57.7491 5.58669C55.7311 6.35134 53.9001 7.54382 52.3802 9.08325L52.3952 9.06811ZM44.154 8.70483C46.2901 8.29269 48.4845 8.29269 50.6207 8.70483L51.2222 8.0691C52.5361 6.73157 54.0605 5.62174 55.7339 4.78445C54.0604 4.17739 52.2942 3.87002 50.5154 3.87626C50.0131 3.87264 49.511 3.89791 49.0115 3.95194C47.051 5.1449 45.385 6.76999 44.1389 8.70483H44.154ZM75.8558 39.644C74.3643 40.8454 72.6742 41.7729 70.8629 42.3838C70.0094 44.1124 68.8587 45.6754 67.4641 47.0004C71.0894 45.6798 74.0862 43.0311 75.8558 39.5835V39.644ZM70.0959 6.34352C71.3039 7.84743 72.2497 9.54664 72.8931 11.3689C74.5736 12.2519 76.0979 13.4077 77.4048 14.7897C76.6709 12.6499 75.4741 10.7008 73.9007 9.08325C72.7789 7.97157 71.4961 7.03761 70.0959 6.31325V6.34352ZM36.9955 12.1106C38.4857 10.8926 40.1753 9.94507 41.9884 9.3103C42.8495 7.5864 43.9992 6.02468 45.3871 4.69363C43.2706 5.46087 41.3496 6.69129 39.7626 8.29614C38.6476 9.41405 37.7139 10.7012 36.9955 12.1106ZM33.0854 33.8921C31.3744 30.9735 30.5743 27.6047 30.7888 24.2228C31.0033 20.8409 32.2226 17.6019 34.2885 14.926C35.1389 11.6314 36.9524 8.66962 39.4943 6.42427C42.0362 4.17893 45.1893 2.75341 48.5453 2.33233C51.4426 0.61693 54.7849 -0.183295 58.1393 0.0353068C61.4937 0.253909 64.7055 1.48127 67.3589 3.55839C70.627 4.41122 73.5655 6.23206 75.7937 8.78509C78.0219 11.3381 79.4371 14.5057 79.8561 17.8776C81.569 20.7964 82.3689 24.1668 82.1516 27.5497C81.9344 30.9326 80.71 34.1712 78.638 36.8438C77.7972 40.1393 75.9881 43.1028 73.4472 45.3469C70.9063 47.591 67.7519 49.0114 64.3962 49.4223C61.496 51.1369 58.1515 51.9367 54.7949 51.7181C51.4384 51.4995 48.2241 50.2727 45.5676 48.1962C42.3053 47.3399 39.3727 45.5196 37.1479 42.9701C34.9231 40.4205 33.5081 37.2586 33.0854 33.8921ZM40.0033 40.416C38.3233 39.5385 36.7989 38.3878 35.4916 37.0103C36.7814 40.623 39.367 43.6196 42.7403 45.4111C41.5411 43.9149 40.6006 42.2263 39.9581 40.416H40.0033ZM60.5162 42.6865C58.7319 42.1491 57.0494 41.3151 55.5383 40.2192C53.902 41.1126 52.1275 41.7216 50.2898 42.0205C50.6798 42.5505 51.1017 43.056 51.5531 43.5341C52.6185 44.5989 53.8286 45.506 55.1473 46.2285C57.1532 45.4447 58.9687 44.2369 60.4711 42.6865H60.5162ZM63.8849 47.8935C65.8475 46.6646 67.5123 45.0097 68.7575 43.0498C66.6214 43.4619 64.4269 43.4619 62.2908 43.0498L61.6892 43.6855C60.3754 45.023 58.8509 46.1329 57.1776 46.9701C58.8502 47.5821 60.6164 47.8946 62.396 47.8935C62.8171 47.9692 63.3285 47.9389 63.8398 47.8935H63.8849ZM49.4175 48.7108C52.8892 50.3474 56.8448 50.6121 60.5012 49.4525C58.6089 49.2654 56.7625 48.7535 55.0421 47.9389C53.344 48.5034 51.5668 48.7896 49.7785 48.7865L49.4175 48.7108ZM47.5527 42.2324C45.6688 42.2336 43.798 41.9163 42.0185 41.2939C42.9956 43.4026 44.4354 45.2605 46.2293 46.728C48.4715 47.2419 50.7997 47.2419 53.0419 46.728C52.0904 46.091 51.2038 45.3609 50.3951 44.5483C49.6687 43.8174 49.0094 43.022 48.425 42.1718L47.5527 42.2324ZM53.3878 16.8786C53.0466 17.309 52.7302 17.7588 52.4403 18.2257C52.8614 18.1349 53.3126 18.0592 53.7487 17.9987C54.1849 17.9382 54.5458 17.5597 54.9518 17.3478C54.4405 17.1662 53.9292 17.0148 53.3878 16.8786ZM59.5988 15.8947C58.9006 14.9902 58.1036 14.1677 57.2227 13.4426C56.2663 14.0497 55.3787 14.7603 54.5759 15.5617C55.4244 15.8054 56.2498 16.1245 57.0422 16.5153C57.8764 16.2392 58.7314 16.0317 59.5988 15.8947ZM61.3734 18.8161C61.1328 18.3166 60.8771 17.8322 60.5914 17.3024C60.0503 17.3625 59.5131 17.4534 58.9822 17.5749C59.3582 17.8322 59.7191 18.0895 60.0801 18.3771C60.5186 18.5002 60.9504 18.6467 61.3734 18.8161ZM52.7712 33.3018L51.4779 32.9082C51.7065 33.4289 51.9677 33.9345 52.2599 34.4219C52.801 34.3619 53.3382 34.2709 53.869 34.1494C53.4931 33.8921 53.1321 33.6197 52.7712 33.3018ZM59.4484 34.8155C59.7924 34.3836 60.1137 33.934 60.4109 33.4683L59.1025 33.6802C58.6965 33.9073 58.3055 34.1343 57.8844 34.3311C58.3957 34.5884 58.9221 34.8155 59.4484 34.8911V34.8155ZM55.6436 38.312C56.597 37.7064 57.4842 37.0012 58.2904 36.208C57.4504 35.9535 56.6309 35.6347 55.8391 35.2544C55.004 35.5271 54.1493 35.7346 53.2825 35.875C53.9716 36.778 54.7641 37.596 55.6436 38.312ZM45.733 29.5177C44.7283 28.6196 43.8346 27.6032 43.0712 26.4903C42.1299 27.9318 41.4384 29.5236 41.0259 31.1978C42.3759 32.2852 43.9022 33.1301 45.5375 33.6954C45.5375 33.3623 45.5375 33.0142 45.5375 32.6661C45.5083 31.6128 45.5737 30.559 45.733 29.5177ZM50.4853 34.4976C50.0719 33.712 49.7151 32.8976 49.4175 32.0606C48.6282 31.6667 47.8735 31.2059 47.1617 30.6832C47.0763 31.3203 47.0361 31.9627 47.0414 32.6055C47.0101 33.1096 47.0101 33.6151 47.0414 34.1192C48.1706 34.3811 49.3266 34.5082 50.4853 34.4976ZM49.2371 40.5522C50.939 40.3673 52.597 39.8912 54.1397 39.1445C53.1197 38.2487 52.2108 37.2322 51.4328 36.1172H50.5455C49.4704 36.123 48.3974 36.0215 47.3422 35.8145C47.7062 37.4892 48.3467 39.0907 49.2371 40.5522ZM41.2515 39.3564C43.2017 40.2508 45.3194 40.7153 47.4625 40.7187C46.5846 39.0742 45.9849 37.294 45.6879 35.4512C43.9028 34.9086 42.2204 34.0696 40.7101 32.9688C40.64 33.5818 40.6049 34.1984 40.6048 34.8155C40.5885 36.3535 40.8066 37.8849 41.2515 39.3564ZM39.7476 30.0323C40.2491 28.217 41.047 26.4983 42.1087 24.9464C41.2495 23.2977 40.6652 21.5182 40.3792 19.6789C39.8528 20.0716 39.3506 20.4963 38.8753 20.9503C37.8061 22.0241 36.9037 23.2539 36.1984 24.5983C36.9837 26.6138 38.1828 28.4397 39.7175 29.9566L39.7476 30.0323ZM34.5893 33.3018C35.7993 35.2716 37.4337 36.9424 39.3716 38.1909C38.9517 36.0419 38.9517 33.8312 39.3716 31.6822C39.146 31.4854 38.9355 31.2735 38.7249 31.0616C37.401 29.7384 36.3034 28.204 35.4766 26.5206C34.6808 28.6858 34.3776 31.0031 34.5893 33.3018ZM33.7471 18.7404C32.7725 20.7655 32.2587 22.9839 32.2432 25.234C32.2747 26.8431 32.559 28.437 33.0854 29.9566C33.2787 28.0535 33.787 26.1963 34.5893 24.462C34.0286 22.7476 33.7443 20.954 33.7471 19.1491C33.717 19.028 33.7321 18.9069 33.7321 18.8009L33.7471 18.7404ZM41.1161 11.3235C39.0174 12.3077 37.1705 13.7627 35.7172 15.5768C35.446 16.7274 35.3097 17.906 35.3111 19.0885C35.3172 20.2131 35.4382 21.3341 35.6721 22.4337C36.309 21.4655 37.0394 20.563 37.8527 19.7394C38.5798 19.0139 39.37 18.3554 40.2138 17.7717C40.2138 17.4689 40.2138 17.1813 40.2138 16.8786C40.2059 15.0103 40.5057 13.1536 41.1011 11.384L41.1161 11.3235ZM52.8013 15.1379C53.6965 14.1253 54.7059 13.2211 55.809 12.4436C54.3739 11.5018 52.7934 10.8061 51.132 10.385C50.0565 11.7471 49.2176 13.2824 48.6506 14.926H49.6732C50.7201 14.9009 51.7671 14.9718 52.8013 15.1379ZM47.8685 19.921C48.6392 19.4953 49.4441 19.1358 50.2748 18.8464C50.6713 18.0515 51.1341 17.2919 51.6583 16.5759C51.0196 16.4974 50.3768 16.4569 49.7334 16.4548C49.231 16.4492 48.7288 16.4745 48.2295 16.5305C47.9877 17.6391 47.8667 18.7709 47.8685 19.9059V19.921ZM41.853 18.6647C42.0415 20.3786 42.5196 22.0475 43.2667 23.5992C44.1571 22.573 45.167 21.6582 46.2744 20.8747C46.2308 19.4934 46.3469 18.1118 46.6203 16.7575C44.9325 17.1153 43.3161 17.7548 41.838 18.6496L41.853 18.6647ZM47.5678 9.96117C46.0605 9.94482 44.5595 10.1592 43.1163 10.5969C42.2225 12.5587 41.7559 14.6901 41.7478 16.8483C43.3898 15.9865 45.164 15.4083 46.9963 15.1379C47.5319 13.3398 48.3658 11.6459 49.4627 10.1277C48.8311 10.0214 48.1929 9.96068 47.5527 9.94603L47.5678 9.96117ZM65.3888 22.8424C64.9526 22.4943 64.5165 22.1764 64.0503 21.8737C64.1436 22.3188 64.2139 22.7684 64.2609 23.2208C64.4969 23.613 64.7128 24.0172 64.9075 24.4318C65.095 23.9069 65.2507 23.3711 65.3737 22.8273L65.3888 22.8424ZM66.3663 29.0938C67.2579 28.383 68.0743 27.5816 68.8026 26.7022C68.2032 25.7369 67.4968 24.8432 66.6971 24.0382C66.4417 24.8878 66.1251 25.7174 65.7497 26.5206C66.0095 27.3581 66.2105 28.2129 66.3512 29.0787L66.3663 29.0938ZM63.4638 30.8799C63.9601 30.6378 64.4413 30.3804 64.9677 30.0928C64.8973 29.5428 64.7968 28.997 64.6669 28.4581C64.4263 28.8365 64.1556 29.1998 63.8849 29.5631C63.6142 29.9263 63.5991 30.441 63.4488 30.8648L63.4638 30.8799ZM55.8542 19.4821C55.3519 19.479 54.8498 19.5043 54.3503 19.5578C53.347 20.1855 52.4185 20.927 51.5831 21.7677C51.2126 22.1378 50.8613 22.5268 50.5304 22.9332C50.2577 24.0938 50.1215 25.2826 50.1244 26.4752C50.1244 27.005 50.1244 27.5348 50.1244 27.9889C50.7478 29.0035 51.4845 29.943 52.32 30.7891C52.696 31.1524 53.087 31.5157 53.478 31.8335C54.6307 32.1123 55.8117 32.2545 56.9971 32.2574C57.5489 32.2762 58.1014 32.261 58.6514 32.212C59.6581 31.5892 60.5871 30.8472 61.4185 30.002C61.789 29.6319 62.1404 29.2429 62.4712 28.8365C62.7448 27.6761 62.8811 26.4872 62.8773 25.2945C62.8773 24.7648 62.8773 24.235 62.8773 23.7809C62.2549 22.7655 61.5181 21.8259 60.6816 20.9806C60.3107 20.6173 59.9197 20.2692 59.5086 19.9362C58.3093 19.6284 57.0768 19.4708 55.8391 19.467L55.8542 19.4821ZM8.69244 67.571C8.71407 66.8963 8.49539 66.236 8.07584 65.7092C7.82105 65.4143 7.50355 65.1808 7.14688 65.0262C6.7902 64.8716 6.40353 64.7998 6.01553 64.8162H3.50404V70.3713H5.86514C6.23798 70.3913 6.61103 70.336 6.9623 70.2086C7.31356 70.0813 7.63594 69.8844 7.91042 69.6296C8.17679 69.3608 8.38406 69.0386 8.51878 68.684C8.6535 68.3293 8.71266 67.9502 8.69244 67.571Z" fill="white"/>
</svg>
